<svg width="200" height="128" viewBox="0 0 200 128" fill="none" xmlns="http://www.w3.org/2000/svg">
<path d="M25.8428 94.8C21.3095 94.8 17.3628 93.8667 14.0028 92C10.6961 90.08 8.13614 87.4933 6.32281 84.24C4.56281 80.9867 3.68281 77.3067 3.68281 73.2C3.68281 68.4 4.64281 64.32 6.56281 60.96C8.53614 57.5467 11.0961 54.9333 14.2428 53.12C17.3895 51.3067 20.7228 50.4 24.2428 50.4C26.9628 50.4 29.5228 50.96 31.9228 52.08C34.3761 53.2 36.5361 54.7467 38.4028 56.72C40.2695 58.64 41.7361 60.88 42.8028 63.44C43.9228 66 44.4828 68.72 44.4828 71.6C44.4295 72.88 43.9228 73.92 42.9628 74.72C42.0028 75.52 40.8828 75.92 39.6028 75.92H9.04281L6.64281 67.92H36.0028L34.2428 69.52V67.36C34.1361 65.8133 33.5761 64.4267 32.5628 63.2C31.6028 61.9733 30.3761 61.0133 28.8828 60.32C27.4428 59.5733 25.8961 59.2 24.2428 59.2C22.6428 59.2 21.1495 59.4133 19.7628 59.84C18.3761 60.2667 17.1761 60.9867 16.1628 62C15.1495 63.0133 14.3495 64.3733 13.7628 66.08C13.1761 67.7867 12.8828 69.9467 12.8828 72.56C12.8828 75.44 13.4695 77.8933 14.6428 79.92C15.8695 81.8933 17.4161 83.4133 19.2828 84.48C21.2028 85.4933 23.2295 86 25.3628 86C27.3361 86 28.9095 85.84 30.0828 85.52C31.2561 85.2 32.1895 84.8267 32.8828 84.4C33.6295 83.92 34.2961 83.52 34.8828 83.2C35.8428 82.72 36.7495 82.48 37.6028 82.48C38.7761 82.48 39.7361 82.88 40.4828 83.68C41.2828 84.48 41.6828 85.4133 41.6828 86.48C41.6828 87.92 40.9361 89.2267 39.4428 90.4C38.0561 91.5733 36.1095 92.6133 33.6028 93.52C31.0961 94.3733 28.5095 94.8 25.8428 94.8Z" fill="#FF9301"/>
<path d="M71.2703 94.8C67.537 94.8 64.177 94.3467 61.1903 93.44C58.2036 92.48 55.3503 90.8267 52.6303 88.48C51.937 87.8933 51.4036 87.2267 51.0303 86.48C50.657 85.7333 50.4703 84.9867 50.4703 84.24C50.4703 83.0133 50.897 81.9467 51.7503 81.04C52.657 80.08 53.777 79.6 55.1103 79.6C56.1236 79.6 57.0303 79.92 57.8303 80.56C59.857 82.2133 61.857 83.4667 63.8303 84.32C65.857 85.1733 68.337 85.6 71.2703 85.6C73.2436 85.6 75.057 85.3067 76.7103 84.72C78.3636 84.08 79.697 83.2533 80.7103 82.24C81.7236 81.1733 82.2303 79.9733 82.2303 78.64C82.2303 77.04 81.7503 75.68 80.7903 74.56C79.8303 73.44 78.3636 72.5067 76.3903 71.76C74.417 70.96 71.9103 70.3467 68.8703 69.92C65.9903 69.4933 63.457 68.8533 61.2703 68C59.0836 67.0933 57.2436 65.9733 55.7503 64.64C54.3103 63.2533 53.217 61.6533 52.4703 59.84C51.7236 57.9733 51.3503 55.8933 51.3503 53.6C51.3503 50.1333 52.2303 47.1733 53.9903 44.72C55.8036 42.2667 58.2303 40.4 61.2703 39.12C64.3103 37.84 67.6703 37.2 71.3503 37.2C74.817 37.2 78.017 37.7333 80.9503 38.8C83.937 39.8133 86.3636 41.12 88.2303 42.72C89.777 43.9467 90.5503 45.36 90.5503 46.96C90.5503 48.1333 90.097 49.2 89.1903 50.16C88.2836 51.12 87.217 51.6 85.9903 51.6C85.1903 51.6 84.4703 51.36 83.8303 50.88C82.977 50.1333 81.8303 49.44 80.3903 48.8C78.9503 48.1067 77.4303 47.5467 75.8303 47.12C74.2303 46.64 72.737 46.4 71.3503 46.4C69.057 46.4 67.1103 46.6933 65.5103 47.28C63.9636 47.8667 62.7903 48.6667 61.9903 49.68C61.1903 50.6933 60.7903 51.8667 60.7903 53.2C60.7903 54.8 61.2436 56.1333 62.1503 57.2C63.1103 58.2133 64.4703 59.04 66.2303 59.68C67.9903 60.2667 70.097 60.8 72.5503 61.28C75.7503 61.8667 78.5503 62.56 80.9503 63.36C83.4036 64.16 85.4303 65.2 87.0303 66.48C88.6303 67.7067 89.8303 69.28 90.6303 71.2C91.4303 73.0667 91.8303 75.36 91.8303 78.08C91.8303 81.5467 90.8703 84.5333 88.9503 87.04C87.0303 89.5467 84.497 91.4667 81.3503 92.8C78.257 94.1333 74.897 94.8 71.2703 94.8ZM152.445 96.24C153.565 96.24 154.605 96.6933 155.565 97.6C156.525 98.56 157.005 99.6533 157.005 100.88C157.005 102.107 156.445 103.253 155.325 104.32C154.258 105.44 152.871 106.427 151.165 107.28C149.458 108.133 147.671 108.8 145.805 109.28C143.991 109.76 142.338 110 140.845 110C137.538 110 134.898 109.68 132.925 109.04C130.951 108.453 129.325 107.76 128.045 106.96C126.765 106.213 125.565 105.52 124.445 104.88C123.325 104.293 121.965 104 120.365 104C119.351 104 118.525 104.16 117.885 104.48C117.298 104.853 116.631 105.2 115.885 105.52C115.191 105.893 114.205 106.08 112.925 106.08C111.591 106.08 110.471 105.573 109.565 104.56C108.658 103.547 108.205 102.453 108.205 101.28C108.205 99.2 109.138 97.8133 111.005 97.12L127.565 90.96L134.765 92.72L119.245 98.48L123.805 95.84C125.671 95.84 127.298 96.1067 128.685 96.64C130.125 97.2267 131.485 97.8667 132.765 98.56C134.045 99.2533 135.351 99.8667 136.685 100.4C138.071 100.987 139.645 101.28 141.405 101.28C142.845 101.28 144.045 101.04 145.005 100.56C146.018 100.08 146.898 99.5467 147.645 98.96C148.551 98.2667 149.351 97.6267 150.045 97.04C150.791 96.5067 151.591 96.24 152.445 96.24ZM152.125 66C152.125 70 151.458 73.7333 150.125 77.2C148.791 80.6667 146.898 83.7333 144.445 86.4C142.045 89.0133 139.165 91.0667 135.805 92.56C132.498 94.0533 128.871 94.8 124.925 94.8C120.978 94.8 117.351 94.0533 114.045 92.56C110.738 91.0667 107.858 89.0133 105.405 86.4C103.005 83.7333 101.138 80.6667 99.8047 77.2C98.4713 73.7333 97.8047 70 97.8047 66C97.8047 62 98.4713 58.2667 99.8047 54.8C101.138 51.3333 103.005 48.2933 105.405 45.68C107.858 43.0133 110.738 40.9333 114.045 39.44C117.351 37.9467 120.978 37.2 124.925 37.2C128.871 37.2 132.498 37.9467 135.805 39.44C139.165 40.9333 142.045 43.0133 144.445 45.68C146.898 48.2933 148.791 51.3333 150.125 54.8C151.458 58.2667 152.125 62 152.125 66ZM141.725 66C141.725 62.4267 141.005 59.2 139.565 56.32C138.125 53.3867 136.151 51.0667 133.645 49.36C131.138 47.6533 128.231 46.8 124.925 46.8C121.618 46.8 118.711 47.6533 116.205 49.36C113.698 51.0667 111.725 53.36 110.285 56.24C108.898 59.12 108.205 62.3733 108.205 66C108.205 69.5733 108.898 72.8267 110.285 75.76C111.725 78.64 113.698 80.9333 116.205 82.64C118.711 84.3467 121.618 85.2 124.925 85.2C128.231 85.2 131.138 84.3467 133.645 82.64C136.151 80.9333 138.125 78.64 139.565 75.76C141.005 72.8267 141.725 69.5733 141.725 66ZM191.475 84.64C192.862 84.64 194.009 85.0933 194.915 86C195.875 86.8533 196.355 87.9733 196.355 89.36C196.355 90.6933 195.875 91.8133 194.915 92.72C194.009 93.5733 192.862 94 191.475 94H165.475C164.089 94 162.915 93.5467 161.955 92.64C161.049 91.68 160.595 90.5067 160.595 89.12V42.88C160.595 41.4933 161.075 40.3467 162.035 39.44C162.995 38.48 164.222 38 165.715 38C166.995 38 168.115 38.48 169.075 39.44C170.089 40.3467 170.595 41.4933 170.595 42.88V86L168.835 84.64H191.475Z" fill="#00678C"/>
<path d="M13.4094 47.92C11.8628 47.92 10.6628 47.52 9.80944 46.72C9.00944 45.8666 8.60944 44.6666 8.60944 43.12V41.76C8.60944 40.2133 9.00944 39.04 9.80944 38.24C10.6628 37.3866 11.8628 36.96 13.4094 36.96H14.4494C15.9961 36.96 17.1694 37.3866 17.9694 38.24C18.8228 39.04 19.2494 40.2133 19.2494 41.76V43.12C19.2494 44.6666 18.8228 45.8666 17.9694 46.72C17.1694 47.52 15.9961 47.92 14.4494 47.92H13.4094Z" fill="#FF9301"/>
<path d="M33.3099 47.92C31.7633 47.92 30.5633 47.52 29.7099 46.72C28.9099 45.8666 28.5099 44.6666 28.5099 43.12V41.76C28.5099 40.2133 28.9099 39.04 29.7099 38.24C30.5633 37.3866 31.7633 36.96 33.3099 36.96H34.3499C35.8966 36.96 37.0699 37.3866 37.8699 38.24C38.7233 39.04 39.1499 40.2133 39.1499 41.76V43.12C39.1499 44.6666 38.7233 45.8666 37.8699 46.72C37.0699 47.52 35.8966 47.92 34.3499 47.92H33.3099Z" fill="#FF9301"/>
</svg>
